<?xml version="1.0" encoding="utf-8"?>
<!-- Generator: Adobe Illustrator 25.0.1, SVG Export Plug-In . SVG Version: 6.00 Build 0)  -->
<svg version="1.0" id="Layer_1" xmlns="http://www.w3.org/2000/svg" xmlns:xlink="http://www.w3.org/1999/xlink" x="0px" y="0px"
	 viewBox="0 0 221.6 146.4" style="enable-background:new 0 0 221.6 146.4;" xml:space="preserve">
<style type="text/css">
	.st0{fill:#211E1F;}
</style>
<path class="st0" d="M28.5,90.9h-5.8c-0.1,0-0.2,0-0.3,0H22V55.2h0.2l2.9-0.1c1.4-0.1,2.8-0.1,4.2-0.1c2.2,0,4.4,0.2,6.5,0.7
	c9.6,2.3,15.5,11.9,13.2,21.5c-1.9,7.8-8.8,13.4-16.9,13.7C31.1,90.8,29.9,90.8,28.5,90.9L28.5,90.9z M28.7,88.2h2.7
	c8,0.1,14.7-6,15.4-14c0.7-8-5.5-15.6-13.3-16.3c-1.5-0.1-3.1-0.2-4.3-0.2h-4.6v30.5L28.7,88.2z"/>
<path class="st0" d="M35.8,55.9c-4.4-1.1-9-0.5-13.6-0.5v35.2c0.2,0,0.3,0.1,0.5,0.1c3.2,0,6.3,0.1,9.5,0
	c8.5-0.3,15.5-6.5,16.9-14.9C50.6,66.7,44.8,58,35.8,55.9z M47,74.2c-0.7,8.2-7.7,14.4-15.8,14.2c-2.2,0-4.4,0-6.7,0V57.7
	c0.1,0,0.1-0.1,0.2-0.1c3,0,6-0.1,8.9,0.1C41.6,58.4,47.7,66.2,47,74.2z"/>
<path class="st0" d="M66.3,91.4c-7.7,0-14-6.2-14.1-14s6.2-14,14-14.1c0.9,0,1.8,0.1,2.7,0.3c7,1.3,11.9,7.8,11.3,14.9v0.2H55
	c0.1,4,3.7,8.3,8,9.6c1,0.3,2.1,0.5,3.2,0.5c2.2,0,7.8-0.7,10.8-7.5l0.1-0.2l2.3,1l-0.1,0.2C77.3,87.8,72.1,91.4,66.3,91.4z
	 M77.5,76c-0.7-5.7-5.5-10-11.3-10H66c-5.6,0.1-10.7,4.7-11,10H77.5z"/>
<path class="st0" d="M68.9,63.8c-7.5-1.5-14.7,3.4-16.2,10.9c-1.5,7.5,3.4,14.7,10.9,16.2c6.7,1.3,13.3-2.4,15.6-8.8l-1.9-0.8
	c-3.2,7.1-9.7,8.5-14.3,7.1s-8.1-5.8-8.1-10H80C80.6,71.5,75.8,65.1,68.9,63.8z M54.8,76.2C55,70.8,60.2,66,66,65.8
	c6-0.1,11.1,4.4,11.7,10.4H54.8z"/>
<polygon class="st0" points="83.4,90.8 83.4,55.2 101.9,55.2 101.9,57.7 86,57.7 86,70.6 100.9,70.6 100.9,73.2 86,73.2 86,90.8 "/>
<polygon class="st0" points="83.6,90.6 85.8,90.6 85.8,72.9 100.7,72.9 100.7,70.8 85.8,70.8 85.8,57.5 101.7,57.5 101.7,55.4 
	83.6,55.4 "/>
<path class="st0" d="M116.7,91.4h-0.8c-3.7-0.1-7.1-1.8-9.6-4.5c-5.2-5.6-4.9-14.4,0.7-19.7c5.8-5.3,14.8-5,20.2,0.8
	c0.3,0.3,0.6,0.7,0.8,1v-5l0,0v-0.7h2.6v27.4H128V90l0,0v-4.3C124.9,89.5,121.2,91.4,116.7,91.4z M116.7,66.1
	c-6.3,0-11.4,5.1-11.4,11.3s5.1,11.4,11.3,11.4c6.3,0,11.4-5.1,11.4-11.3c0-3-1.2-5.9-3.3-8.1C122.6,67.3,119.7,66.1,116.7,66.1
	L116.7,66.1L116.7,66.1z"/>
<path class="st0" d="M158.3,73.8"/>
<path class="st0" d="M159.2,72.7l-0.1-0.2c-2.1-5.5-7.3-9.1-13.2-9.1c-0.8,0-1.6,0.1-2.3,0.2c-6.7,1.2-11.7,7.1-11.7,13.9
	c0.1,6.9,5.2,12.7,12,13.8c0.6,0.1,1.3,0.1,1.9,0.1c5.9,0,11.1-3.7,13.2-9.2l0.1-0.2l-2.3-1l-0.1,0.2c-3,6.8-8.6,7.5-10.9,7.5
	c-6.3-0.1-11.3-5.3-11.2-11.5c0.1-4.9,3.2-9.1,7.9-10.6c1.1-0.4,2.2-0.6,3.4-0.6c1.1,0,2.1,0.2,3.2,0.5c3.5,1,6.2,3.6,7.6,7l1.6,0.3
	L159.2,72.7z"/>
<path class="st0" d="M157.7,73.6h0.4l0.3-0.3c0,0,0.2-0.2,0.4-0.6l0,0l0,0l0,0c-2.6-7.2-10.6-10.8-17.7-8.2c-5.5,2-9.1,7.3-9,13.1
	c0.1,7.6,6.3,13.7,13.9,13.7c5.7,0,10.9-3.6,12.8-9l-1.9-0.8c-3.2,7.1-9.6,8.5-14.2,7.2c-4.8-1.4-8.2-5.8-8.4-10.8
	c-0.1-5.2,3.2-9.8,8.2-11.3c2.2-0.7,4.5-0.7,6.7-0.1c3.5,1.1,6.3,3.7,7.7,7.1l0,0L157.7,73.6z"/>
<path class="st0" d="M185.6,91.4c-7.7,0-14-6.3-14-14s6.3-14,14-14s14,6.3,14,14S193.3,91.4,185.6,91.4z M185.6,66
	c-6.3,0-11.4,5.1-11.4,11.4s5.1,11.4,11.4,11.4S197,83.7,197,77.4C197,71.1,191.9,66,185.6,66L185.6,66z"/>
<path class="st0" d="M185.6,63.6c-7.6,0-13.8,6.2-13.8,13.8c0,7.6,6.2,13.8,13.8,13.8c7.6,0,13.8-6.2,13.8-13.8
	C199.4,69.8,193.2,63.6,185.6,63.6C185.6,63.6,185.6,63.6,185.6,63.6z M185.6,89c-6.4,0-11.6-5.2-11.6-11.6
	c0-6.4,5.2-11.6,11.6-11.6c6.4,0,11.6,5.2,11.6,11.6c0,0,0,0,0,0C197.2,83.8,192,89,185.6,89z"/>
<path class="st0" d="M169.4,91.4c-0.3,0-0.5,0-0.7-0.1h-0.2c-1.1-0.1-2.1-0.4-3-0.9c-0.9-0.5-1.6-1.3-2.1-2.3
	c-0.6-1.3-0.8-2.8-0.6-4.2V66.6h-4.6V64h4.5v-8.8h2.8V64h6.6v2.6h-6.6v17.4c0,1,0.1,1.9,0.4,2.8c0.2,0.6,0.6,1.2,1.2,1.5
	c0.6,0.4,1.3,0.6,2,0.7c0.1,0,0.4,0,0.8,0h0.4v2.3H170C169.8,91.4,169.6,91.4,169.4,91.4z"/>
<path class="st0" d="M167,88.5c-0.6-0.4-1-1-1.3-1.6c-0.3-0.9-0.4-1.9-0.4-2.9V66.4h6.6v-2.3h-6.6v-8.7h-2.3v8.8h-4.5v2.2h4.6v17.5
	c-0.1,1.4,0.1,2.8,0.6,4.1c0.4,0.9,1.1,1.7,2,2.2c0.9,0.5,1.9,0.8,2.9,0.9c0.5,0.1,1,0.1,1.5,0v-2c-0.3,0-0.7,0-1,0
	C168.3,89.1,167.6,88.9,167,88.5z"/>
</svg>
