<?xml version="1.0" encoding="utf-8"?>
<!-- Generator: Adobe Illustrator 25.0.1, SVG Export Plug-In . SVG Version: 6.00 Build 0)  -->
<svg version="1.0" id="katman_1" xmlns:sketch="http://www.bohemiancoding.com/sketch/ns"
	 xmlns="http://www.w3.org/2000/svg" xmlns:xlink="http://www.w3.org/1999/xlink" x="0px" y="0px" viewBox="0 0 152.2 95.2"
	 style="enable-background:new 0 0 152.2 95.2;" xml:space="preserve">
<style type="text/css">
	.st0{fill-rule:evenodd;clip-rule:evenodd;fill:#03467B;}
</style>
<desc>Created with Sketch.</desc>
<g id="HEADER-DESİGN" sketch:type="MSPage">
	<g id="HEADER" transform="translate(-92.000000, -48.000000)" sketch:type="MSArtboardGroup">
		<g id="Group-_x2B_-JEAN--------KADIN---" transform="translate(92.000000, 48.000000)" sketch:type="MSLayerGroup">
			<g id="Group" sketch:type="MSShapeGroup">
				<path id="Fill-1" class="st0" d="M27.1,64h9.1V50.9c0-2.5,0.8-4.3,3.1-4.3c2.7,0,3,2,3,4.3V64h9.1V50.9c0-2.5,0.8-4.3,3.1-4.3
					c2.7,0,3,2,3,4.3V64h9.1V47.4c0-3.9-2.1-8.2-8.2-8.2c-5.9,0-7.7,3.5-8.1,3.8c-1.1-2.4-3.8-3.8-6.4-3.8c-3.3,0-6,1-7.8,3.8h-0.1
					v-3.2h-8.8V64"/>
				<path id="Fill-2" class="st0" d="M82.8,55.4c-0.1,2.5-1.7,3.8-3.8,3.8c-1.6,0-2.8-1.1-2.8-2.2c0-1.6,1.1-2.1,3.1-2.6
					c1.2-0.3,2.5-0.6,3.6-1.2V55.4L82.8,55.4z M91.5,48.7c0-4.7,0.1-9.5-11.3-9.5c-5.6,0-12,1.1-12.2,7.9h8.4c0-1,0.6-2.5,3.4-2.5
					c1.5,0,3,0.6,3,2.2c0,1.5-1.2,1.9-2.5,2.1c-4.6,0.9-13.4,0.6-13.4,8.2c0,5.1,3.8,7.3,8.4,7.3c2.9,0,5.7-0.7,7.7-2.9H83
					c0,0.7,0.1,1.6,0.3,2.3h9.3c-1-1.5-1.1-3.6-1.1-5.4V48.7L91.5,48.7z"/>
				<path id="Fill-3" class="st0" d="M116.7,39.8h-9.3l-3.8,14.7h-0.1l-3.7-14.7h-9.6L98.1,64h10.7L116.7,39.8"/>
				<path id="Fill-4" class="st0" d="M115.9,64h9.1V39.8h-9.1V64z M115.9,37.2h9.1v-6.5h-9.1V37.2z"/>
			</g>
		</g>
	</g>
</g>
</svg>
