<?xml version="1.0" encoding="UTF-8"?>
<svg id="katman_1" data-name="katman 1" xmlns="http://www.w3.org/2000/svg" version="1.1" viewBox="0 0 841.89 595.28">
  <defs>
    <style>
      .cls-1 {
        fill: #fcc836;
      }

      .cls-1, .cls-2 {
        stroke-width: 0px;
      }

      .cls-2 {
        fill: #fd2751;
      }
    </style>
  </defs>
  <path class="cls-2" d="M218.61,543.42c14.57-38.42,27.68-73.03,42.92-113.22,19.15,27.84,36.97,50.85,51.33,75.84,7.81,13.59-14.45,35.34-31.43,37.05-3.64.36-7.35.31-11.05.31-15.42.03-30.83,0-51.78,0h0v.02Z"/>
  <path class="cls-2" d="M325.99,267.64l75.97-216.46h86.18l131.12,492.47h-55.56c-15.94-6.53-26.2-17.85-30.66-33.12-24.25-83.05-97.71-329.1-97.71-329.1l-59.97,161.57-49.4-75.36h.02Z"/>
  <path class="cls-1" d="M195.11,273.28h102.05l66.53,98.27c74.66-84.85,171.29-108.84,283.17-90.52-108.38,33.22-210.8,96.8-304.06,205.81l-147.69-213.56Z"/>
</svg>