<?xml version="1.0" encoding="utf-8"?>
<!-- Generator: Adobe Illustrator 27.5.0, SVG Export Plug-In . SVG Version: 6.00 Build 0)  -->
<svg version="1.1" id="Layer_1" xmlns="http://www.w3.org/2000/svg" xmlns:xlink="http://www.w3.org/1999/xlink" x="0px" y="0px"
	 viewBox="0 0 640 480" style="enable-background:new 0 0 640 480;" xml:space="preserve">
<style type="text/css">
	.st0{fill:#105A33;}
	.st1{fill:#E72734;}
	.st2{fill:none;}
</style>
<g>
	<path id="croco" class="st0" d="M350.8,236.4l-2.7,11.8c-0.2,1-1.2,1.4-2.1,1l-14-6.7c-1.1-0.5-1.1-1.4,0-1.9
		c5.4-2.6,11.2-4.5,17.1-5.6C350.3,234.8,351.1,235.5,350.8,236.4 M324.3,227.2l-2.7,11.8c-0.2,1-1.2,1.4-2.1,1l-14-6.7
		c-1.1-0.5-1.1-1.4,0-1.9c5.4-2.6,11.2-4.5,17.1-5.5C323.8,225.7,324.6,226.3,324.3,227.2 M316,264.1c-0.2,1-1.1,1.4-2.1,1l-14-6.7
		c-1.1-0.5-1.2-1.4,0-1.9c5.4-2.6,11.2-4.5,17.1-5.6c1.2-0.2,2,0.4,1.7,1.4L316,264.1 M296.4,222.7l-2.7,11.8c-0.2,1-1.1,1.4-2.1,1
		l-14-6.7c-1.1-0.5-1.1-1.4,0-1.9c5.4-2.6,11.2-4.5,17.2-5.6C295.9,221.2,296.7,221.8,296.4,222.7 M290.9,247l-2.7,11.8
		c-0.2,1-1.1,1.4-2.1,1l-14-6.7c-1.1-0.5-1.2-1.4,0-1.9c5.4-2.6,11.2-4.4,17.1-5.5C290.3,245.4,291.1,246.1,290.9,247 M285.3,271.9
		l-2.7,11.8c-0.2,1-1.1,1.4-2.1,1l-14-6.7c-1.1-0.5-1.1-1.4,0-1.9c5.4-2.6,11.2-4.5,17.1-5.6C284.7,270.3,285.5,270.9,285.3,271.9
		 M264.8,233.9c-0.2,1-1.1,1.4-2,1l-14-6.7c-1.1-0.5-1.1-1.3,0-1.9c5.4-2.6,11.2-4.5,17.1-5.6c1.2-0.2,1.9,0.4,1.7,1.4L264.8,233.9
		 M261.9,246.2l-2.7,11.8c-0.2,1-1.2,1.4-2.1,1l-14-6.7c-1.1-0.5-1.1-1.4,0-1.9c5.4-2.6,11.2-4.5,17.1-5.6
		C261.4,244.7,262.2,245.3,261.9,246.2 M256.5,270.8l-2.7,11.8c-0.2,1-1.1,1.4-2.1,1l-14-6.7c-1.1-0.5-1.1-1.4,0-1.8
		c5.4-2.6,11.2-4.5,17.1-5.6C256,269.2,256.8,269.8,256.5,270.8 M233.8,237.2l-14-6.7c-1-0.5-1.1-1.4,0-1.9
		c5.4-2.6,11.2-4.4,17.2-5.5c1.2-0.2,1.9,0.4,1.7,1.4l-2.7,11.8C235.6,237.2,234.7,237.7,233.8,237.2 M233,249l-2.7,11.8
		c-0.2,1-1.2,1.4-2.1,1l-14-6.7c-1.2-0.5-1.1-1.4,0-1.9c5.4-2.6,11.2-4.5,17.2-5.6C232.5,247.4,233.2,248.1,233,249 M227.6,273.7
		l-2.7,11.8c-0.2,1-1.1,1.4-2,1l-14-6.7c-1.1-0.5-1.1-1.4,0-1.9c5.5-2.6,11.2-4.5,17.2-5.6C227.1,272.1,227.8,272.8,227.6,273.7
		 M204.4,242.1l-14-6.7c-1.1-0.5-1.1-1.2,0-1.9c5.4-2.6,11.2-4.5,17.1-5.5c1.2-0.2,1.9,0.4,1.7,1.4l-2.7,11.8
		C206.3,242.2,205.3,242.6,204.4,242.1 M200.5,267c-0.2,1-1.1,1.4-2.1,1l-14-6.7c-1-0.5-1.1-1.3,0-1.8c5.4-2.6,11.2-4.5,17.1-5.6
		c1.2-0.2,2,0.4,1.7,1.4L200.5,267 M194.9,291.7c-0.2,1-1.1,1.4-2.1,1l-14-6.7c-1.1-0.5-1.1-1.4,0-1.9c5.4-2.6,11.2-4.5,17.1-5.5
		c1.2-0.2,1.9,0.4,1.7,1.4L194.9,291.7 M177.4,247.8c-0.2,1-1.1,1.4-2,1l-14-6.7c-1.1-0.5-1.1-1.4,0-1.8c5.4-2.6,11.2-4.4,17.1-5.6
		c1.2-0.2,1.9,0.4,1.7,1.4L177.4,247.8 M174,263l-2.7,11.8c-0.2,1-1.2,1.4-2.1,1l-14-6.7c-1.1-0.5-1.2-1.4,0-1.9
		c5.4-2.6,11.2-4.5,17.1-5.6C173.5,261.4,174.3,262.1,174,263 M168.4,288.5l-2.7,11.8c-0.2,1-1.1,1.4-2.1,1l-14-6.7
		c-1.1-0.5-1.1-1.3,0-1.8c5.4-2.6,11.2-4.5,17.2-5.6C167.9,286.9,168.6,287.6,168.4,288.5 M146.3,256.8l-14-6.7
		c-1.1-0.5-1.2-1.4,0-1.9c5.4-2.6,11.2-4.5,17.1-5.6c1.2-0.2,2,0.4,1.7,1.4l-2.7,11.8C148.2,256.8,147.3,257.3,146.3,256.8
		 M145.1,270l-2.7,11.8c-0.2,1-1.1,1.4-2.1,1l-14-6.7c-1.1-0.5-1.1-1.3,0-1.9c5.4-2.6,11.2-4.5,17.1-5.6
		C144.6,268.5,145.4,269.1,145.1,270 M119.9,257.9c-0.2,1-1.1,1.4-2.1,1l-14-6.7c-1.2-0.5-1.2-1.4,0-1.9c5.4-2.6,11.2-4.4,17.2-5.5
		c1.2-0.2,1.9,0.4,1.7,1.3L119.9,257.9 M114.2,282.7c-0.2,1-1.1,1.4-2.1,1l-14-6.7c-1.1-0.5-1.1-1.4,0-1.9
		c5.5-2.6,11.2-4.4,17.1-5.5c1.2-0.2,1.9,0.4,1.7,1.4L114.2,282.7 M87.3,234.9c-1-0.5-1.1-1.4,0-1.8c5.4-2.6,11.2-4.5,17.1-5.6
		c1.2-0.2,1.9,0.4,1.7,1.4l-2.7,11.8c-0.2,1-1.1,1.4-2.1,1L87.3,234.9 M88.8,269.6c-0.2,1-1.1,1.4-2.1,1l-14-6.7
		c-1-0.5-1.1-1.4,0-1.9c5.4-2.6,11.2-4.5,17.1-5.5c1.2-0.2,2,0.4,1.7,1.2l-2.8,11.8 M58.4,241.2c-1.1-0.5-1.1-1.4,0-1.9
		c5.4-2.6,11.2-4.5,17.1-5.6c1.2-0.2,1.9,0.4,1.7,1.3l-2.8,11.8c-0.2,1-1.1,1.4-2.1,1L58.4,241.2 M55.3,215.8
		c5.5-2.6,11.2-4.5,17.2-5.6c1.2-0.2,1.9,0.4,1.7,1.3l-2.7,11.8c-0.2,1-1.2,1.5-2.1,1l-14-6.7C54.3,217.2,54.2,216.4,55.3,215.8
		 M62,192.5c5.4-2.6,11.2-4.5,17.1-5.5c1.2-0.2,1.9,0.4,1.7,1.2L78.1,200c-0.2,1-1.1,1.5-2.1,1l-14-6.7
		C61,193.8,60.8,192.9,62,192.5 M79.9,172.2c5.4-2.6,11.2-4.5,17.2-5.6c1.2-0.2,1.9,0.4,1.7,1.3L96,179.8c-0.2,1-1.2,1.4-2.1,1
		l-14-6.7C78.7,173.6,78.8,172.8,79.9,172.2 M103.4,205.8l-2.7,11.8c-0.2,1-1.1,1.5-2.1,1l-14-6.7c-1.1-0.5-1.2-1.3,0-1.9
		c5.4-2.6,11.2-4.4,17.2-5.5C102.9,204.3,103.6,204.9,103.4,205.8 M114.2,183.4c1.2-0.2,2,0.4,1.7,1.4l-2.7,11.8c-0.2,1-1.1,1.4-2,1
		l-14-6.7c-1.1-0.5-1.1-1.4,0-1.9C102.6,186.4,108.3,184.5,114.2,183.4 M103.1,156.8c5.4-2.6,11.2-4.5,17.1-5.6
		c1.2-0.2,1.9,0.4,1.7,1.4l-2.7,11.8c-0.2,1-1.1,1.4-2.1,1l-14-6.7C102,158.2,102,157.3,103.1,156.8 M128.9,144.7
		c5.4-2.6,11.2-4.4,17.1-5.6c1.2-0.2,1.9,0.4,1.7,1.3l-2.7,11.8c-0.2,1-1.1,1.4-2.1,1l-14-6.7C128,146,127.9,145.2,128.9,144.7
		 M456.8,216.6c7.9,0,12.8,6,13.6,8.7l-17.1,3.7c-3.4,0.7-5.6-0.7-5.9-3.4C447,222.7,450.2,216.5,456.8,216.6 M486.1,217.5
		c1.2-3.1,3.8-5.2,6.4-5.2c4.7,0,7,5.1,7,6.7l-11.4,2.4c-3.2,0.6-3.1-1.1-2-4 M614.1,312.7c-4.9-3.1-9.2-3.4-13.6-4.8
		c-6.1-1.8-8-9.2-10.2-10c-4.5-1.7-8.7,5.1-11.4,4.2s-3.9-9.9-6.1-10.7c-4.4-1.6-9.1,5.3-11.8,4.4c-2.8-0.9-4.2-9.8-6.4-10.6
		c-4.6-1.7-9.2,5.5-12,4.6c-2.7-0.9-3.5-10.1-5.8-10.9c-4.9-1.8-9.3,5.5-13.6,4.8c-2.7-0.4-8.7-1.4-16.6-6.6l-7.3-5.3
		c-0.8-0.3-2.8-0.8-2.3,3.2c1.2,9.4,17.5,16.1,36.2,21.5l49,15.7c7,3.2,10,7,7.5,10.7c-2,2.9-6.8,3.1-12,0.6c-5.6-2.6-6.2-7-9.7-7.8
		c-4.3-1-9.8,7.1-13.2,6.4c-4.4-1-4.9-10.4-8.8-11.4c-5.2-1.4-10.9,6.5-14.3,5.8c-3.4-0.7-4.7-10.7-7.9-11.5
		c-5.4-1.4-10.9,6.9-14.4,6.2c-3.4-0.7-5.3-10.6-8.2-11.7c-5.4-2.2-12.6,5.9-20.1,2c-24.2-16.2-19.5-24.6-38.1-30
		c-9.6-2.8-21.5,0.6-28.4,1.3c-16.4,1.7-15.7-12.4-15.7-12.4c4.8,1.1,11.4,4.1,23.7-0.4c13.2-4.9,20.6-5.7,37.9,0
		c14.6,4.9,23.2,0.5,28.3-0.8c2.5-0.6,4.4-2,9.1,1s9.2,6.2,11.5,5.1c3.6-1.7,2.3-11.2,8.5-13.2c2.8-0.9,10.5,6.7,13.8,5.4
		c3.4-1.3,2.3-11.2,8.5-13.2c2.8-0.9,10.5,6.7,13.9,5.4s2.3-11.2,8.5-13.3c2.8-0.9,10.5,6.7,13.9,5.4c3.3-1.3,2.3-11.2,8.5-13.3
		c2.8-0.9,10.5,6.7,13.9,5.5c3.3-1.3,2.9-3.8,5.6-10.6c0.5-1.3,1.5-2.6,2.9-3.8c3.7-3,9.4-9.6,6.1-16.9c-3-6.6-9.3-6.4-23.1-3.6
		l-83.4,18c-11.2-20.5-18.8-7-35.4-9c-10.5-1.2-27.6-11.9-54.5,12.7c-14.5-4.1-27.3-0.5-36.8,4.8c-16.2-6.5-47-22.2-105.6-22.2
		c-16.6,0-56.1,3.2-119,19.7c-16.1,4.2-30.8,3.3-34.4-6.2c-3.6-9.9,9.2-20.3,33.5-31.9c60.4-28.7,100.7-21.9,181.8-64.5
		C380.2,98.3,383,71.5,383,65c0-4.4-4.6-5.9-7.2-2.3c-14.6,20.2-18.4,18.6-23,14c-6.1-6-10.2,3.6-16.7,8.4c-5,3.7-6-0.8-10-3.3
		c-6.9-4.4-12.7,8.6-18.5,11.2c-6.8,3-8.1-0.4-10.4-2.8c-1.6-1.7-4.6-1.7-6.7,0.4c-13.8,13-15.9,11.5-20,7.2
		c-3.1-3.2-4.7-5.5-13.7,3.5c-5.2,5.2-13.8,11.3-16.4,4.9c-2.6-6.5-4.9-10.3-17.6,1.2c-7.5,6.8-12.6,7.4-14.9,4.1
		c-2.3-3.2-1.9-12.1-13.8-2.8c-10.7,8.3-16,13.3-19.5,5.3c-3.4-7.8-11.2-1.2-17.2,4.4c-3.1,3-8.3,10-12.5,2.8
		c-4.2-7.2-10.8,0.2-19.4,9.2c-4.8,5-8,2.8-12.8-0.5c-5.5-3.9-11.3,10-19.2,18.3c-1.5,1.4-3.7,2.4-8.5-0.9
		c-6.2-4.2-16,17.3-18.8,22.6c-4.6,8.5-9.6-2.2-14.9,5.5c-12.4,18-25.7,38-29.4,73.4c-4.5,42.3,11.3,76.8,27.4,89.5
		c0,0-2,4.7-4.2,10.7c-4.5,11.9-6.4,27.4-0.6,38.3c5.6,10.5,18.6,27.9,23.5,11.5c2.4-8,4.6-7.6,12.4-2.1c11.8,8.2,8.9-6.8,11.2-11.2
		c1.7-3.1,3.7-4.3,13.4,2c5.6,3.6,7.4-1.3,9-8.1c5.1-21.1-5-26.3-14.9-28.3c-7.2-1.4-14.8-0.2-14.8-0.2c15.8-23.9,17.8-37,0-49.1
		c2.6-1.2,4.8-0.6,7.1,0.4c4.4,1.8,8,5.2,10.4,9.2c2.5,4.3,6.5,13.9-1.7,30.9c3.4,0,16.6,0.8,22.5,14.2c7.8,2.5,58,6.4,79.9,2.9
		c8-1.3,11.6-8.4,19.5-15.8c8.7-8,18.8-16.7,27.8-10.2c-15.4,6.2-26.1,18-26.1,33c0,11.2,4.8,15.8,12.8,22.5
		c7.3,6.1,9.6,15.7,12.3,23.1c3.4,9.5,10.7,9.8,12.3,0.8c2.2-12.5,6-10.1,10.9-4.8c5.9,6.5,10.5,5.5,10.6-3.8c0-8.8,2.7-13.1,12.6-3
		c4,4.1,8.9,4,8.8-5c-0.1-11,4.9-9.9,11.1-5.2c2.2,1.6,3.7,2.8,4.8,2.8c4.9-0.3,8.1-9.7,4.3-17.1c-1.9-3.6-4.6-9.3-29.9-14.5
		c-8.3-1.7-6.9-7.4-6.9-7.4c61.8,3,114.3-4.7,148.7-25.5c42.4,10.1,104.3,11.1,124.7,10.8c20.3-0.3,35.9-1.2,48.6-7.2
		c13.4-6.4,11.4-16.1,5.2-20"/>
	<path id="langue" class="st1" d="M460.7,260.2c-17.3-5.7-24.7-4.9-37.9,0c-12.2,4.5-18.9,1.5-23.7,0.4c0,0-0.6,14,15.8,12.4
		c7-0.7,18.9-4.1,28.4-1.3c18.5,5.4,13.9,13.8,38.1,30c7.5,3.9,14.7-4.2,20.1-2c2.9,1.1,4.8,11,8.2,11.7s8.9-7.6,14.4-6.2
		c3.2,0.8,4.5,10.8,7.9,11.5s9.1-7.2,14.3-5.8c3.9,1,4.4,10.4,8.8,11.4c3.4,0.8,8.9-7.4,13.2-6.3c3.5,0.8,4.1,5.2,9.7,7.8
		c5.2,2.5,10,2.3,12-0.6c2.5-3.7-0.5-7.5-7.5-10.7c-11.3-5.2-30.3-10.4-49-15.7c-18.7-5.4-35.1-12.1-36.2-21.5
		c-0.5-4,1.5-3.5,2.3-3.2c-7.2-5.3-8.7-10.3-8.4-13.1l0,0l0,0l0,0l0,0l-2.1,0.6C483.9,260.7,475.2,265.1,460.7,260.2"/>
</g>
<rect x="1.3" y="44.2" class="st2" width="637.3" height="391.6"/>
</svg>
