<?xml version="1.0" encoding="utf-8"?>
<!-- Generator: Adobe Illustrator 25.0.0, SVG Export Plug-In . SVG Version: 6.00 Build 0)  -->
<svg version="1.1" id="Layer_1" xmlns="http://www.w3.org/2000/svg" xmlns:xlink="http://www.w3.org/1999/xlink" x="0px" y="0px"
	 viewBox="0 0 512 512" style="enable-background:new 0 0 512 512;" xml:space="preserve">
<style type="text/css">
	.st0{fill:#040404;}
</style>
<g id="mdx">
</g>
<g id="XMLID_1_">
	<g id="XMLID_72_">
		<path id="XMLID_77_" class="st0" d="M342.3,268.2c-6.8,7.3-15.5,10.9-25.8,10.9c-10.4,0-19.1-3.7-25.8-10.9
			c-6.5-6.9-10.2-18-10.2-30.3c0-12.1,3.7-23,10.3-29.9c6.8-7.3,15.5-11,25.7-11c10.2,0,18.9,3.7,25.7,11c6.5,7,10.3,17.9,10.3,29.9
			C352.4,250.2,348.7,261.3,342.3,268.2 M251.5,237.9c0,0.6,0,1.1,0,1.7c-10.4-9.4-25.4-13-34.5-14.8c-17-3.6-29.9-6.9-29.9-18.9
			c0-8.5,7.6-14.7,22.3-13.7c13.4,1,19,9.2,20.6,17.1c0.2,1.3,0.8,2.2,2.3,2.3l24.1,0.2c0.1,0,0.2,0,0.3,0
			C253.2,219.6,251.5,228.4,251.5,237.9 M210.5,282.2c-11.6,0-24.5-4.1-27.4-20.2c-0.3-1.5-1-2.2-2.1-2.2l-23.3-0.3v-41.2
			c3.1,12.1,13.2,20.4,35.1,25.3c14.7,3.5,40.1,5.7,40.1,20.8C232.9,275,225.1,282.4,210.5,282.2 M94.5,279.2
			c-18.8,0-36-14.8-36-41.3c0-20.8,12.9-40.9,36.1-40.9c10.1,0,35.6,3.4,35.6,40.9C130.2,275.5,103.6,279.2,94.5,279.2 M380.7,227.8
			c5.3,7.1,15,12.4,30.7,15.9c14.7,3.5,40.1,5.7,40.1,20.8c0,10.5-7.7,17.9-22.4,17.7c-11.6,0-24.5-4.1-27.4-20.2
			c-0.3-1.5-1-2.2-2.1-2.2l-21.6-0.3c2.3-6.7,3.4-14,3.4-21.7C381.4,234.4,381.2,231,380.7,227.8 M427.6,303.1
			c25.8,0,56.3-9.6,53.9-40.8c-2.6-27.7-31.5-34.7-45.9-37.6c-17-3.6-29.9-6.9-29.9-18.9c0-8.5,7.6-14.7,22.3-13.7
			c13.4,1,19,9.2,20.6,17.1c0.2,1.3,0.8,2.2,2.3,2.3l24.1,0.2c1.8,0,2.4-0.9,2.2-2.2c-4.7-28.9-28.8-37-51-37
			c-22.2,0-48.9,6.2-50.8,33.8c-0.1,1.1-0.1,2.1-0.1,3.1c-3.5-7.3-8.6-14.1-15.2-20c-12.1-10.9-27.2-16.8-43.6-16.9
			c-0.2,0-0.4,0-0.5,0c-7.9,0-15.6,1.5-22.9,4.3c-7.3,2.9-14.1,7.1-20.2,12.6c-6.2,5.6-11.1,12-14.6,18.9
			c-5.2-27.8-28.9-35.8-50.8-35.8c-20.3,0-44.5,5.3-49.8,27.5v-22c0-1.2-1-2.1-2.1-2.1h-22.7c-1.2,0-2.1,1-2.1,2.1v2v4
			c0,1-0.7,1.3-1.5,0.8c-8.1-5.9-20-12.1-34.4-12.1c-8.1,0-15.8,1.4-22.9,4.2c-7.1,2.8-13.9,7.1-20.1,12.7
			c-7.1,6.5-12.5,13.8-16,21.8c-3.5,8-5.3,17-5.3,26.7c0,9,1.6,17.5,4.7,25.2c3.1,7.7,7.9,14.7,14.2,21.1
			c6.3,6.3,13.3,11.1,20.9,14.3c7.6,3.2,15.9,4.7,24.8,4.7c15.3,0,26.7-6.5,34.2-12.4c0.8-0.6,1.5-0.3,1.5,0.7v4v2.2
			c0,1.2,1,2.1,2.1,2.1h22.7c1.2,0,2.1-1,2.1-2.1v-21c10.7,25.1,37.9,26.5,51.3,26.5c22.3,0,48-7.2,53.1-29.2
			c2.4,3.6,5.2,7,8.4,10.2c12.2,12.2,28.1,18.8,46.1,19c0.2,0,0.5,0,0.7,0c8.5,0,16.8-1.6,24.5-4.9c7.7-3.2,14.7-8,20.8-14.1
			c4.6-4.6,8.3-9.6,11.3-14.9C381.9,301.6,413,303.1,427.6,303.1"/>
		<path id="XMLID_74_" class="st0" d="M375,337c-4.6,0-7.5-3.5-7.5-7.9c0-4.5,2.9-7.9,7.5-7.9c4.7,0,7.6,3.5,7.6,7.9
			C382.6,333.6,379.7,337,375,337 M375,318.6c-6.2,0-10.6,4.5-10.6,10.5c0,6,4.4,10.5,10.6,10.5c6.2,0,10.6-4.5,10.6-10.5
			C385.7,323.1,381.3,318.6,375,318.6"/>
		<path id="XMLID_73_" class="st0" d="M401.2,318.6c-2.6,0-5.5,1.5-6.7,3.7h-0.1c0-1.1,0-2.1-0.1-3.2h-2.9c0.1,1.5,0.2,3.3,0.2,4.4
			v15.6h2.8v-10.3c0-7.3,5.5-7.7,6.1-7.7c4.2,0,5.4,2.4,5.4,6.9v11.1h2.8v-12.7C408.8,321.5,406.3,318.6,401.2,318.6"/>
	</g>
	<rect id="XMLID_71_" x="416.8" y="311.5" class="st0" width="2.8" height="27.6"/>
	<g id="XMLID_69_">
		<path id="XMLID_70_" class="st0" d="M429.2,311.1c-1,0-2,0.9-2,2.1c0,1.2,1,2.1,2,2.1c1,0,2-0.9,2-2.1
			C431.3,312,430.2,311.1,429.2,311.1"/>
	</g>
	<rect id="XMLID_68_" x="427.8" y="319.1" class="st0" width="2.8" height="20"/>
	<g id="XMLID_56_">
		<path id="XMLID_67_" class="st0" d="M448.1,318.6c-2.6,0-5.5,1.5-6.7,3.7h-0.1c0-1.1,0-2.1-0.1-3.2h-2.9c0.1,1.5,0.2,3.3,0.2,4.4
			v15.6h2.8v-10.3c0-7.3,5.5-7.7,6.1-7.7c4.2,0,5.4,2.4,5.4,6.9v11.1h2.8v-12.7C455.7,321.5,453.2,318.6,448.1,318.6"/>
		<path id="XMLID_64_" class="st0" d="M464.9,327.6c0-3.3,3.3-6.4,7-6.4c4.1,0,6.5,2.6,6.5,6.4H464.9z M471.9,318.6
			c-5.7,0-10.1,4.5-10.1,10.5c0,6,4.4,10.5,10.3,10.5c3.3,0,6.2-1.2,8.6-4.2l-2.2-1.8c-1.1,1.8-3.4,3.5-6.4,3.5c-4,0-7-3.2-7.4-7.2
			h16.7v-1.3C481.4,323.1,477.9,318.6,471.9,318.6"/>
		<path id="XMLID_61_" class="st0" d="M233,337c-4.6,0-7.5-3.5-7.5-7.9c0-4.5,2.9-7.9,7.5-7.9c4.7,0,7.6,3.5,7.6,7.9
			C240.6,333.6,237.7,337,233,337 M240.2,321.2c-1.8-1.6-4.3-2.6-7.2-2.6c-6.2,0-10.6,4.5-10.6,10.5c0,6,4.4,10.5,10.6,10.5
			c2.9,0,5.4-1,7.2-2.6v2.1h2.8v-20h-2.8V321.2z"/>
		<path id="XMLID_60_" class="st0" d="M212.2,318.5v0.6H208v2.6h4.2v17.4h2.8v-17.4h4.7v-2.6H215v-0.3c0-2.9,0.5-5.1,3.6-5.1
			c0.7,0,1.5,0.1,2.2,0.3l0.5-2.6c-0.8-0.2-1.6-0.3-2.4-0.3C214.9,311.1,212.2,313.2,212.2,318.5"/>
		<path id="XMLID_59_" class="st0" d="M259.5,328l-2.9-0.7c-2.6-0.6-3.9-1.3-3.9-3.2c0-2.1,2.2-3,4.1-3c2.1,0,3.5,1.1,4.3,2.7
			l2.5-1.7c-1.3-2.6-3.9-3.6-6.7-3.6c-3.8,0-7.4,1.9-7.4,6c0,3.8,3.8,4.9,5.1,5.3l2.7,0.6c2.1,0.5,3.8,1.2,3.8,3.2
			c0,2.3-2.4,3.3-4.7,3.3c-2.4,0-4.1-1.2-5.3-3l-2.4,1.7c1.9,2.8,4.7,3.9,7.7,3.9c3.9,0,7.8-1.8,7.8-6.2
			C264.4,330.6,262.3,328.6,259.5,328"/>
		<path id="XMLID_58_" class="st0" d="M280,318.6c-2.6,0-5.5,1.5-6.7,3.7h-0.1v-11.2h-2.8v27.9h2.8v-10.3c0-7.3,5.5-7.7,6.1-7.7
			c4.2,0,5.4,2.4,5.4,6.9v11.1h2.8v-12.7C287.5,321.5,285.1,318.6,280,318.6"/>
		<path id="XMLID_57_" class="st0" d="M296.9,311.1c-1,0-2,0.9-2,2.1c0,1.2,1,2.1,2,2.1c1,0,2-0.9,2-2.1
			C298.9,312,297.9,311.1,296.9,311.1"/>
	</g>
	<rect id="XMLID_24_" x="295.5" y="319.1" class="st0" width="2.8" height="20"/>
	<g id="XMLID_15_">
		<path id="XMLID_21_" class="st0" d="M315.6,337c-4.6,0-7.5-3.5-7.5-7.9c0-4.5,2.9-7.9,7.5-7.9c4.7,0,7.6,3.5,7.6,7.9
			C323.1,333.6,320.2,337,315.6,337 M315.6,318.6c-6.2,0-10.6,4.5-10.6,10.5c0,6,4.4,10.5,10.6,10.5c6.2,0,10.6-4.5,10.6-10.5
			C326.2,323.1,321.8,318.6,315.6,318.6"/>
		<path id="XMLID_20_" class="st0" d="M342.3,318.6c-2.6,0-5.5,1.5-6.7,3.7h-0.1c0-1.1,0-2.1-0.1-3.2h-2.9c0.1,1.5,0.2,3.3,0.2,4.4
			v15.6h2.8v-10.3c0-7.3,5.5-7.7,6.1-7.7c4.2,0,5.4,2.4,5.4,6.9v11.1h2.8v-12.7C349.8,321.5,347.4,318.6,342.3,318.6"/>
		<path id="XMLID_17_" class="st0" d="M42.2,337c-4.7,0-7.6-3.5-7.6-7.9c0-4.5,2.9-7.9,7.6-7.9c4.6,0,8,3.5,8,7.9
			C50.2,333.6,46.8,337,42.2,337 M50.1,322.4L50.1,322.4c-1.9-2.7-5.2-3.8-7.9-3.8c-6.2,0-10.6,4.5-10.6,10.5
			c0,6,4.4,10.5,10.6,10.5c2.6,0,5.9-1.2,7.8-3.8h0.1v3.3h2.8v-27.9h-2.8V322.4z"/>
		<path id="XMLID_16_" class="st0" d="M62.6,311.1c-1,0-2.1,0.9-2.1,2.1c0,1.2,1,2.1,2.1,2.1c1,0,2.1-0.9,2.1-2.1
			C64.7,312,63.6,311.1,62.6,311.1"/>
	</g>
	<rect id="XMLID_14_" x="61.2" y="319.1" class="st0" width="2.8" height="20"/>
	<g id="XMLID_8_">
		<path id="XMLID_13_" class="st0" d="M80.9,328l-2.9-0.7c-2.6-0.6-3.9-1.3-3.9-3.2c0-2.1,2.2-3,4.1-3c2.1,0,3.5,1.1,4.3,2.7
			l2.5-1.7c-1.3-2.6-3.9-3.6-6.7-3.6c-3.8,0-7.4,1.9-7.4,6c0,3.8,3.8,4.9,5.1,5.3l2.7,0.6c2.1,0.5,3.8,1.2,3.8,3.2
			c0,2.3-2.4,3.3-4.7,3.3c-2.3,0-4.1-1.2-5.3-3l-2.4,1.7c1.9,2.8,4.7,3.9,7.7,3.9c3.9,0,7.8-1.8,7.8-6.2
			C85.8,330.6,83.7,328.6,80.9,328"/>
		<path id="XMLID_12_" class="st0" d="M101.2,321.2c2.2,0,4.1,1.2,5,2.6l2.3-1.8c-2-2.3-4.6-3.4-7.3-3.5
			c-6.5-0.1-10.6,4.5-10.6,10.5c0,6,4.1,10.6,10.6,10.5c2.7,0,5.3-1.2,7.3-3.5l-2.3-1.8c-0.9,1.5-2.8,2.6-5,2.6
			c-4.7,0.1-7.5-3.4-7.5-7.9C93.7,324.5,96.5,321.1,101.2,321.2"/>
		<path id="XMLID_9_" class="st0" d="M122.7,337c-4.6,0-7.5-3.5-7.5-7.9c0-4.5,2.9-7.9,7.5-7.9c4.7,0,7.6,3.5,7.6,7.9
			C130.3,333.6,127.4,337,122.7,337 M122.7,318.6c-6.2,0-10.6,4.5-10.6,10.5c0,6,4.4,10.5,10.6,10.5c6.2,0,10.6-4.5,10.6-10.5
			C133.4,323.1,129,318.6,122.7,318.6"/>
	</g>
	<polygon id="XMLID_7_" class="st0" points="145.2,335.9 145.1,335.9 138.8,319.1 135.4,319.1 143.5,339.1 146.7,339.1 154.8,319.1 
		151.6,319.1 	"/>
	<g id="XMLID_2_">
		<path id="XMLID_4_" class="st0" d="M160,327.6c0-3.3,3.3-6.4,7-6.4c4.1,0,6.5,2.6,6.5,6.4H160z M167,318.6
			c-5.7,0-10.1,4.5-10.1,10.5c0,6,4.4,10.5,10.3,10.5c3.3,0,6.2-1.2,8.6-4.2l-2.2-1.8c-1.1,1.8-3.4,3.5-6.4,3.5c-4,0-7-3.2-7.3-7.2
			h16.7v-1.3C176.6,323.1,173.1,318.6,167,318.6"/>
		<path id="XMLID_3_" class="st0" d="M185.8,322.8L185.8,322.8l-0.1-3.7h-2.8c0.1,2.9,0.2,4.4,0.2,6.2v13.8h2.8v-11.3
			c0-2.7,1.9-6.4,6.2-6.4c0.8,0,1.3,0.1,1.6,0.2l0.6-2.8c-0.6-0.2-1.3-0.3-2.1-0.3C188.7,318.6,186.6,320.7,185.8,322.8"/>
	</g>
</g>
</svg>
